# xmcd CD database file
#
# Track frame offsets:
#	150
#	19962
#	41818
#	62518
#	83489
#	100623
#	119962
#	139731
#	163995
#	185575
#	198339
#	218602
#	239169
#	261417
#	282714
#
# Disc length: 4049 seconds
#
# Revision: 0
# Processed by: cddbd v1.5.2PL0 Copyright (c) Steve Scherf et al.
# Submitted via: CDex 1.51
#
DISCID=eb0fcf0f
DTITLE=Peoria Jazzband - Smiles
DYEAR=2009
DGENRE=Jazz
TTITLE0=Smiles
TTITLE1=Saratoga Swing
TTITLE2=Ti-Pi-Tin
TTITLE3=Old Fashion Swing
TTITLE4=See See Rider
TTITLE5=Canal Street Blues
TTITLE6=I've got a a feeling I'm falling
TTITLE7=On the sunny side of the street
TTITLE8=Sugar
TTITLE9=St. Philip street breakdown
TTITLE10=The same old love
TTITLE11=Angry
TTITLE12=Kansas City man blues
TTITLE13=Let the great big world keep on turning
TTITLE14=Avalon
EXTD=YEAR: 2009
EXTT0=
EXTT1=
EXTT2=
EXTT3=
EXTT4=
EXTT5=
EXTT6=
EXTT7=
EXTT8=
EXTT9=
EXTT10=
EXTT11=
EXTT12=
EXTT13=
EXTT14=
PLAYORDER=
